<?xml version="1.0" standalone="no"?>
<!DOCTYPE svg PUBLIC "-//W3C//DTD SVG 20010904//EN"
 "http://www.w3.org/TR/2001/REC-SVG-20010904/DTD/svg10.dtd">
<svg version="1.0" xmlns="http://www.w3.org/2000/svg"
 width="200.000000pt" height="200.000000pt" viewBox="0 0 200.000000 200.000000"
 preserveAspectRatio="xMidYMid meet">

<g transform="translate(0.000000,200.000000) scale(0.100000,-0.100000)"
fill="#ffffff" stroke="none">
<path d="M865 1900 c-308 -48 -583 -260 -700 -540 -58 -137 -70 -199 -69 -365
1 -132 4 -160 27 -238 66 -216 189 -387 366 -506 510 -346 1211 -87 1381 511
31 106 38 297 16 408 -10 47 -24 95 -32 108 -29 45 -104 17 -104 -39 1 -13 7
-51 15 -84 8 -33 15 -100 15 -148 0 -224 -86 -427 -247 -578 -442 -415 -1162
-203 -1304 386 -23 98 -25 262 -4 355 54 234 208 430 422 538 64 33 201 70
289 77 148 13 325 -28 457 -106 79 -47 113 -48 137 -7 19 36 10 52 -61 100
-62 42 -179 91 -271 113 -80 19 -255 27 -333 15z"/>
<path d="M1275 1180 c-214 -214 -394 -390 -400 -390 -5 0 -70 61 -145 135
-143 142 -162 153 -200 115 -39 -39 -28 -56 147 -232 143 -144 172 -168 197
-168 27 0 83 52 453 423 446 445 450 450 405 490 -43 40 -49 35 -457 -373z"/>
</g>
</svg>
